<?xml version="1.0" encoding="UTF-8" standalone="no"?>
<svg width="20px" height="20px" viewBox="0 0 20 20" version="1.1" xmlns="http://www.w3.org/2000/svg" xmlns:xlink="http://www.w3.org/1999/xlink">
    <!-- Generator: Sketch 46 (44423) - http://www.bohemiancoding.com/sketch -->
    <title>Facebook</title>
    <desc>Created with Sketch.</desc>
    <defs></defs>
    <g id="Symbols" stroke="none" stroke-width="1" fill="none" fill-rule="evenodd">
        <g id="Footer" transform="translate(-20.000000, -232.000000)" fill="#FFFFFF">
            <g id="Facebook" transform="translate(20.000000, 232.000000)">
                <path d="M15.8333333,0 L4.16666667,0 C1.86583333,0 0,1.86583333 0,4.16666667 L0,15.8333333 C0,18.1341667 1.86583333,20 4.16666667,20 L15.8333333,20 C18.135,20 20,18.1341667 20,15.8333333 L20,4.16666667 C20,1.86583333 18.135,0 15.8333333,0 L15.8333333,0 Z M13.3333333,5.83333333 L11.73,5.83333333 C11.2175,5.83333333 10.8333333,6.04333333 10.8333333,6.57416667 L10.8333333,7.5 L13.3333333,7.5 L13.135,10 L10.8333333,10 L10.8333333,16.6666667 L8.33333333,16.6666667 L8.33333333,10 L6.66666667,10 L6.66666667,7.5 L8.33333333,7.5 L8.33333333,5.8975 C8.33333333,4.2125 9.22,3.33333333 11.2175,3.33333333 L13.3333333,3.33333333 L13.3333333,5.83333333 L13.3333333,5.83333333 Z" id="Shape"></path>
            </g>
        </g>
    </g>
</svg>