<?xml version="1.0" encoding="UTF-8" standalone="no"?>
<svg width="22px" height="18px" viewBox="0 0 22 18" version="1.1" xmlns="http://www.w3.org/2000/svg" xmlns:xlink="http://www.w3.org/1999/xlink">
    <!-- Generator: Sketch 46 (44423) - http://www.bohemiancoding.com/sketch -->
    <title>Twitter</title>
    <desc>Created with Sketch.</desc>
    <defs></defs>
    <g id="Symbols" stroke="none" stroke-width="1" fill="none" fill-rule="evenodd">
        <g id="Footer" transform="translate(-123.000000, -233.000000)" fill="#FFFFFF">
            <g id="Twitter" transform="translate(123.000000, 233.000000)">
                <path d="M22,2.11658333 C21.1905833,2.47591667 20.3206667,2.71791667 19.4076667,2.827 C20.3399167,2.26875 21.0558333,1.38416667 21.39225,0.33 C20.5205,0.847 19.5543333,1.22283333 18.5258333,1.42541667 C17.7035833,0.548166667 16.5293333,0 15.2313333,0 C12.31725,0 10.1759167,2.71883333 10.8340833,5.54125 C7.084,5.35333333 3.75833333,3.55666667 1.53175,0.825916667 C0.34925,2.8545 0.9185,5.50825 2.92783333,6.85208333 C2.189,6.82825 1.49233333,6.62566667 0.884583333,6.28741667 C0.835083333,8.37833333 2.33383333,10.3345 4.5045,10.7699167 C3.86925,10.94225 3.1735,10.9825833 2.46583333,10.8469167 C3.03966667,12.6399167 4.70616667,13.9443333 6.6825,13.981 C4.785,15.46875 2.39433333,16.1333333 0,15.851 C1.99741667,17.1315833 4.37066667,17.8786667 6.919,17.8786667 C15.2991667,17.8786667 20.03375,10.8010833 19.74775,4.45316667 C20.6295833,3.81608333 21.395,3.02133333 22,2.11658333 L22,2.11658333 Z" id="Shape"></path>
            </g>
        </g>
    </g>
</svg>