<?xml version="1.0" encoding="UTF-8" standalone="no"?>
<svg width="22px" height="20px" viewBox="0 0 22 20" version="1.1" xmlns="http://www.w3.org/2000/svg" xmlns:xlink="http://www.w3.org/1999/xlink">
    <!-- Generator: Sketch 46 (44423) - http://www.bohemiancoding.com/sketch -->
    <title>Vimeo</title>
    <desc>Created with Sketch.</desc>
    <defs></defs>
    <g id="Symbols" stroke="none" stroke-width="1" fill="none" fill-rule="evenodd">
        <g id="Footer" transform="translate(-89.000000, -233.000000)" fill="#FFFFFF">
            <g id="Vimeo" transform="translate(89.000000, 233.000000)">
                <path d="M20.9669167,7.80504448 C18.7284167,12.5872945 13.3246667,19.0974611 9.90916667,19.0974611 C6.54316667,19.0974611 6.05641667,11.9190445 4.2185,7.14137781 C3.31375,4.79012781 2.72983333,5.33004448 1.034,6.51712781 L0,5.18337781 C2.47316667,3.00904448 4.94816667,0.483627812 6.46891667,0.343377812 C8.18125,0.179294478 9.23541667,1.34987781 9.62958333,3.85604448 C10.15025,7.14962781 10.8780833,12.2618778 12.1485833,12.2618778 C13.1385833,12.2618778 15.5778333,8.20654448 15.7034167,6.75637781 C15.9261667,4.63337781 14.1423333,4.56921114 12.5940833,5.23196114 C15.0443333,-2.79253886 25.2376667,-1.31487219 20.9669167,7.80504448 L20.9669167,7.80504448 Z" id="Shape"></path>
            </g>
        </g>
    </g>
</svg>